# xmcd
#
# Track frame offsets: 
#        150
#        22118
#        38625
#        56477
#        75452
#        91507
#        107442
#        121994
#        137488
#        151503
#        170693
#        184839
#        203010
#        217860
#        233237
#        250282
#        269939
#        287334
#        301807
#        321517
#        336191
#
# Disc length: 4710 seconds
#
# Revision: 0
# Processed by: cddbd v1.5.2PL0 Copyright (c) Steve Scherf et al.
# Submitted via: ExactAudioCopyFreeDBPlugin 1.0
#
DISCID=18126415
DTITLE=Blue Tales - Revisited
DYEAR=2010
DGENRE=Blues
TTITLE0=Get With It
TTITLE1=Bound To Fall
TTITLE2=Crying Won't Help Her
TTITLE3=Here Comes Mister F.
TTITLE4=Twisting And Gliding
TTITLE5=Anything
TTITLE6=No Mercy
TTITLE7=Baby, That Is It 
TTITLE8=Always In My Heart
TTITLE9=Chaingang Shuffle
TTITLE10=See The Profits Climb
TTITLE11=No Money, No Honey
TTITLE12=The Chemical Song
TTITLE13=Change
TTITLE14=Good Fart
TTITLE15=Out Of The City
TTITLE16=Too Young
TTITLE17=Get Up And Do It
TTITLE18=Go West
TTITLE19=Out Of The Ashes
TTITLE20=MC 65 Germany
EXTD=
EXTT0=
EXTT1=
EXTT2=
EXTT3=
EXTT4=
EXTT5=
EXTT6=
EXTT7=
EXTT8=
EXTT9=
EXTT10=
EXTT11=
EXTT12=
EXTT13=
EXTT14=
EXTT15=
EXTT16=
EXTT17=
EXTT18=
EXTT19=
EXTT20=
PLAYORDER=
